<svg xmlns="http://www.w3.org/2000/svg" xmlns:xlink="http://www.w3.org/1999/xlink" width="480" zoomAndPan="magnify" viewBox="0 0 360 503.999982" height="672" preserveAspectRatio="xMidYMid meet" version="1.0"><defs><clipPath id="7feddf80bb"><path d="M 167 421 L 360 421 L 360 504 L 167 504 Z M 167 421 " clip-rule="nonzero"/></clipPath><clipPath id="625ef19a98"><path d="M 442.609375 454.996094 L 338.109375 849.386719 L 85.089844 782.34375 L 189.589844 387.953125 Z M 442.609375 454.996094 " clip-rule="nonzero"/></clipPath><clipPath id="7d3c48978a"><path d="M 442.609375 454.996094 L 338.109375 849.386719 L 85.089844 782.34375 L 189.589844 387.953125 Z M 442.609375 454.996094 " clip-rule="nonzero"/></clipPath><clipPath id="c25a21f913"><path d="M 195 448 L 360 448 L 360 504 L 195 504 Z M 195 448 " clip-rule="nonzero"/></clipPath><clipPath id="46d4bbc36d"><path d="M 442.609375 454.996094 L 338.109375 849.386719 L 85.089844 782.34375 L 189.589844 387.953125 Z M 442.609375 454.996094 " clip-rule="nonzero"/></clipPath><clipPath id="de6ec6f722"><path d="M 442.609375 454.996094 L 338.109375 849.386719 L 85.089844 782.34375 L 189.589844 387.953125 Z M 442.609375 454.996094 " clip-rule="nonzero"/></clipPath><clipPath id="7644c1c970"><path d="M 219 468 L 316 468 L 316 504 L 219 504 Z M 219 468 " clip-rule="nonzero"/></clipPath><clipPath id="edb616b941"><path d="M 442.609375 454.996094 L 338.109375 849.386719 L 85.089844 782.34375 L 189.589844 387.953125 Z M 442.609375 454.996094 " clip-rule="nonzero"/></clipPath><clipPath id="cf657e3871"><path d="M 442.609375 454.996094 L 338.109375 849.386719 L 85.089844 782.34375 L 189.589844 387.953125 Z M 442.609375 454.996094 " clip-rule="nonzero"/></clipPath><clipPath id="61e519bfa9"><path d="M 320 124 L 360 124 L 360 390 L 320 390 Z M 320 124 " clip-rule="nonzero"/></clipPath><clipPath id="a0f4569815"><path d="M 384.644531 420.046875 L 278.070312 152.492188 L 450.167969 83.9375 L 556.742188 351.492188 Z M 384.644531 420.046875 " clip-rule="nonzero"/></clipPath><clipPath id="e356210289"><path d="M 384.644531 420.046875 L 278.070312 152.492188 L 450.167969 83.9375 L 556.742188 351.492188 Z M 384.644531 420.046875 " clip-rule="nonzero"/></clipPath></defs><rect x="-36" width="432" fill="#ffffff" y="-50.399998" height="604.799979" fill-opacity="1"/><rect x="-36" width="432" fill="#fffefd" y="-50.399998" height="604.799979" fill-opacity="1"/><g clip-path="url(#7feddf80bb)"><g clip-path="url(#625ef19a98)"><g clip-path="url(#7d3c48978a)"><path fill="#800020" d="M 172.363281 498.933594 C 171.414062 474.105469 197.066406 455 216.53125 444.214844 C 234.683594 434.191406 254.859375 428.246094 275.535156 427.082031 C 295.800781 425.808594 321.363281 427.933594 339.179688 438.410156 C 363.273438 452.765625 345.078125 480.492188 348.046875 501.871094 C 350.878906 522.101562 364.609375 538.804688 373.597656 556.683594 C 384 577.597656 395.984375 607.5625 389.113281 630.984375 C 384.917969 645.148438 373.976562 648.003906 362.417969 654.019531 C 354.472656 658.113281 346.871094 663.40625 339.832031 669.070312 C 325.652344 680.8125 314.121094 695.910156 306.152344 712.621094 C 296.796875 732.058594 293.449219 752.207031 293.773438 773.546875 C 293.824219 780.867188 294.238281 788.503906 292.734375 795.855469 C 292.226562 798.601562 291.488281 803.054688 290.003906 805.316406 C 285.972656 811.335938 279.066406 811.496094 273.085938 812.347656 C 259.148438 813.96875 245.226562 814.707031 231.316406 814.566406 C 228.460938 814.472656 228.34375 819.089844 231.460938 819.03125 C 245.371094 819.175781 259.503906 818.492188 273.230469 816.816406 C 281.238281 815.835938 289.453125 814.914062 294.019531 807.710938 C 299.808594 798.394531 298.351562 783.839844 298.445312 773.457031 C 298.371094 760.375 299.121094 747.511719 302.726562 734.738281 C 309.445312 711.058594 323.40625 689.292969 342.058594 673.203125 C 352.359375 664.417969 363.5 658.292969 375.777344 652.910156 C 384.082031 649.132812 389.34375 644.328125 392.527344 635.652344 C 400.679688 613.234375 391.414062 585.539062 382.363281 564.542969 C 372.207031 541.039062 350.417969 517.996094 352.304688 490.820312 C 353.882812 470.648438 364.339844 447.070312 341.570312 434.394531 C 323.234375 424.222656 299.445312 421.242188 278.617188 422.140625 C 254.203125 423.199219 229.703125 430.4375 208.808594 443.277344 C 189.484375 455.207031 166.792969 473.992188 167.742188 498.820312 C 168.066406 501.78125 172.476562 501.84375 172.363281 498.933594 Z M 172.363281 498.933594 " fill-opacity="1" fill-rule="nonzero"/></g></g></g><g clip-path="url(#c25a21f913)"><g clip-path="url(#46d4bbc36d)"><g clip-path="url(#de6ec6f722)"><path fill="#800020" d="M 199.414062 491.269531 C 203.5 469.988281 231.484375 458.804688 250.28125 454.710938 C 272.828125 449.835938 296.351562 452.96875 313.089844 470.023438 C 327.933594 485.027344 334.652344 505.625 337.84375 526.175781 C 339.277344 534.96875 337.800781 543.878906 340.378906 552.53125 C 342.664062 559.78125 346.785156 565.964844 350.0625 572.8125 C 372.371094 618.132812 311.328125 647.125 287.664062 676.28125 C 281.746094 683.570312 277.113281 691.863281 270.328125 698.257812 C 264.957031 703.476562 258.9375 706.972656 255.574219 713.832031 C 252.261719 720.480469 251.320312 728.203125 249.609375 735.5 C 247.019531 746.105469 244.585938 756.972656 242.203125 767.632812 C 241.695312 770.378906 245.835938 771.472656 246.546875 768.785156 C 248.601562 759.363281 250.652344 749.945312 252.914062 740.582031 C 255.007812 731.835938 256.039062 721.261719 260.976562 713.492188 C 265.171875 706.851562 272.855469 702.910156 277.769531 696.90625 C 283.785156 690.085938 288.363281 682 294.582031 675.234375 C 307.394531 661.140625 323.382812 650.097656 336.347656 636.265625 C 346.574219 625.246094 358.175781 612.378906 360.109375 596.726562 C 361.863281 582.582031 354.183594 571.46875 348.277344 559.496094 C 343.835938 550.347656 344.046875 542.875 343.300781 533.160156 C 342.746094 524.378906 340.746094 515.210938 338.375 506.613281 C 330.210938 478.101562 310.429688 452.492188 279.539062 448.734375 C 262.59375 446.679688 244.582031 450.320312 229.011719 457.265625 C 214.699219 463.65625 198.570312 473.554688 195.273438 490.171875 C 194.507812 493.070312 198.851562 494.21875 199.414062 491.269531 Z M 199.414062 491.269531 " fill-opacity="1" fill-rule="nonzero"/></g></g></g><g clip-path="url(#7644c1c970)"><g clip-path="url(#edb616b941)"><g clip-path="url(#cf657e3871)"><path fill="#800020" d="M 229.8125 500.210938 C 238.480469 489.222656 249.691406 474.480469 264.664062 473.132812 C 282.652344 471.257812 300.339844 479.707031 305.273438 497.84375 C 309.128906 511.707031 302.300781 524.953125 305.007812 538.953125 C 308.066406 554.15625 311.769531 567.757812 310.304688 583.308594 C 308.894531 598.65625 305.96875 614.710938 294.960938 626.183594 C 286.742188 634.632812 275.914062 640.398438 266.46875 647.636719 C 246.105469 663.496094 232.601562 686.046875 219.46875 708.027344 C 217.929688 710.5 221.792969 712.628906 223.277344 710.367188 C 232.476562 694.871094 241.675781 679.371094 253.910156 665.789062 C 264.671875 653.582031 278.28125 645.675781 290.878906 635.730469 C 312.980469 618.335938 318.402344 587.007812 314.472656 560.058594 C 313.105469 550.175781 308.625 540.355469 308.402344 530.332031 C 308.207031 521.867188 311.640625 513.921875 311.242188 505.402344 C 310.5625 494.59375 305.691406 482.898438 296.804688 476.335938 C 286.632812 468.769531 269.433594 465.984375 257.542969 469.917969 C 244.714844 474.046875 234.671875 486.882812 226.691406 496.945312 C 224.945312 499.363281 228.121094 502.417969 229.8125 500.210938 Z M 229.8125 500.210938 " fill-opacity="1" fill-rule="nonzero"/></g></g></g><path fill="#800020" d="M -110.371094 198.285156 C -116.394531 178.617188 -99.917969 157.882812 -86.625 145.128906 C -74.222656 133.253906 -59.339844 124.21875 -43.039062 118.902344 C -27.089844 113.585938 -6.183594 109.867188 10.296875 114.472656 C 32.621094 120.851562 23.941406 146.898438 30.851562 163.378906 C 37.40625 178.96875 51.9375 189.425781 62.921875 201.828125 C 75.679688 216.355469 91.625 237.796875 91.09375 257.996094 C 90.738281 270.222656 82.589844 274.828125 74.617188 282.09375 C 69.121094 287.054688 64.160156 292.902344 59.730469 298.925781 C 50.871094 311.332031 44.847656 325.859375 42.011719 340.921875 C 38.644531 358.464844 40.242188 375.296875 45.023438 392.308594 C 46.621094 398.152344 48.570312 404.179688 48.921875 410.378906 C 49.101562 412.683594 49.453125 416.40625 48.746094 418.53125 C 46.796875 424.199219 41.304688 425.796875 36.699219 427.746094 C 25.890625 431.996094 14.902344 435.542969 3.738281 438.375 C 1.4375 438.90625 2.324219 442.628906 4.804688 441.917969 C 15.964844 439.085938 27.128906 435.542969 37.761719 431.289062 C 43.960938 428.808594 50.339844 426.328125 52.46875 419.59375 C 55.125 410.910156 50.871094 399.570312 48.746094 391.242188 C 45.910156 380.789062 43.785156 370.335938 43.960938 359.347656 C 44.316406 338.972656 50.871094 318.597656 62.390625 301.761719 C 68.769531 292.550781 76.386719 285.285156 85.070312 278.375 C 90.917969 273.589844 94.105469 268.628906 94.816406 261.007812 C 96.585938 241.339844 83.296875 221.140625 71.605469 206.257812 C 58.492188 189.601562 36.164062 175.78125 31.914062 153.632812 C 28.902344 137.152344 32.265625 116.066406 11.359375 110.753906 C -5.472656 106.5 -25.140625 109.15625 -41.621094 114.296875 C -60.933594 120.320312 -79.007812 131.304688 -93.003906 146.011719 C -105.941406 159.65625 -120.117188 179.5 -114.089844 199.167969 C -113.207031 201.472656 -109.660156 200.585938 -110.371094 198.285156 Z M -110.371094 198.285156 " fill-opacity="1" fill-rule="nonzero"/><path fill="#800020" d="M -90.347656 186.414062 C -91.589844 168.515625 -71.566406 153.632812 -57.390625 146.367188 C -40.378906 137.683594 -20.890625 135.203125 -3.878906 145.304688 C 11.183594 154.164062 20.925781 169.226562 27.835938 184.996094 C 30.851562 191.726562 31.558594 199.167969 35.457031 205.546875 C 38.824219 210.863281 43.429688 214.941406 47.507812 219.722656 C 74.96875 251.261719 32.265625 287.410156 19.511719 315.761719 C 16.320312 322.847656 14.371094 330.46875 10.296875 337.023438 C 7.105469 342.339844 3.03125 346.414062 1.789062 352.617188 C 0.550781 358.640625 1.4375 365.019531 1.613281 371.222656 C 1.789062 380.257812 2.144531 389.472656 2.5 398.507812 C 2.675781 400.8125 6.21875 400.8125 6.21875 398.507812 C 5.867188 390.535156 5.511719 382.5625 5.335938 374.585938 C 5.15625 367.144531 3.738281 358.464844 6.042969 351.199219 C 7.992188 344.996094 13.308594 340.214844 15.964844 334.367188 C 19.332031 327.632812 21.28125 320.191406 24.824219 313.457031 C 32.089844 299.460938 42.542969 287.234375 49.988281 273.414062 C 55.832031 262.425781 62.390625 249.667969 60.617188 236.734375 C 59.023438 225.039062 50.519531 217.773438 43.253906 209.445312 C 37.761719 203.066406 36.34375 197.042969 33.683594 189.425781 C 31.382812 182.515625 27.835938 175.605469 24.117188 169.226562 C 11.535156 148.140625 -9.726562 131.835938 -35.242188 135.382812 C -49.238281 137.332031 -62.882812 144.0625 -73.867188 152.921875 C -83.96875 161.074219 -94.777344 172.414062 -93.890625 186.414062 C -93.890625 188.894531 -90.171875 188.894531 -90.347656 186.414062 Z M -90.347656 186.414062 " fill-opacity="1" fill-rule="nonzero"/><path fill="#800020" d="M -64.125 187.121094 C -59.515625 176.488281 -53.667969 162.3125 -41.976562 158.0625 C -27.976562 152.746094 -12.03125 155.757812 -4.234375 169.226562 C 1.789062 179.5 -0.867188 191.550781 4.273438 202.183594 C 9.941406 213.699219 15.789062 223.800781 17.914062 236.558594 C 20.042969 249.136719 21.105469 262.605469 14.726562 274.121094 C 9.941406 282.625 2.5 289.535156 -3.523438 297.332031 C -16.460938 314.34375 -22.484375 335.25 -28.332031 355.628906 C -29.039062 357.933594 -25.496094 358.816406 -24.789062 356.691406 C -20.710938 342.339844 -16.636719 327.988281 -9.726562 314.519531 C -3.703125 302.472656 5.511719 293.257812 13.484375 282.625 C 27.484375 264.019531 25.179688 237.796875 16.320312 217.066406 C 13.132812 209.445312 7.460938 202.535156 5.15625 194.5625 C 3.207031 187.828125 4.273438 180.742188 2.144531 174.007812 C -0.691406 165.503906 -7.070312 157.175781 -15.574219 153.808594 C -25.320312 149.910156 -39.671875 151.328125 -48.355469 157 C -57.746094 163.023438 -63.0625 175.425781 -67.3125 185.171875 C -68.199219 187.476562 -65.007812 189.246094 -64.125 187.121094 Z M -64.125 187.121094 " fill-opacity="1" fill-rule="nonzero"/><g clip-path="url(#61e519bfa9)"><g clip-path="url(#a0f4569815)"><g clip-path="url(#e356210289)"><path fill="#800020" d="M 519.554688 281.339844 C 530.546875 295.035156 524.027344 316.679688 517.519531 330.996094 C 511.433594 344.328125 502.484375 356.195312 491.234375 365.5625 C 480.269531 374.8125 464.863281 384.371094 450.339844 385.921875 C 430.621094 387.914062 429.277344 364.515625 418.59375 353.632812 C 408.46875 343.339844 393.644531 339.636719 381.011719 333.273438 C 366.308594 325.78125 346.886719 313.816406 340.929688 297.628906 C 337.347656 287.820312 342.355469 281.59375 346.382812 273.3125 C 349.171875 267.644531 351.261719 261.441406 352.871094 255.261719 C 355.976562 242.628906 356.164062 229.203125 353.65625 216.363281 C 350.785156 201.390625 344.203125 188.542969 335.035156 176.566406 C 331.925781 172.433594 328.476562 168.269531 326.234375 163.464844 C 325.367188 161.695312 323.910156 158.855469 323.800781 156.945312 C 323.554688 151.832031 327.40625 148.832031 330.445312 145.832031 C 337.671875 139.046875 345.265625 132.765625 353.222656 126.992188 C 354.882812 125.84375 353.003906 123.171875 351.261719 124.515625 C 343.304688 130.292969 335.570312 136.628906 328.484375 143.359375 C 324.347656 147.285156 320.074219 151.265625 320.515625 157.277344 C 321.148438 165.003906 328.105469 172.652344 332.421875 178.585938 C 337.972656 185.980469 342.960938 193.597656 346.289062 202.367188 C 352.445312 218.636719 353.683594 236.867188 349.867188 253.855469 C 347.71875 263.175781 343.972656 271.34375 339.269531 279.566406 C 336.144531 285.207031 335.183594 290.148438 337.027344 296.414062 C 341.835938 312.570312 358.753906 324.390625 372.730469 332.5 C 388.386719 341.566406 410.457031 345.476562 420.828125 361.695312 C 428.421875 373.8125 432.414062 391.597656 450.671875 389.207031 C 465.363281 387.261719 480.121094 378.941406 491.566406 369.664062 C 504.980469 358.785156 515.84375 344.363281 522.296875 328.277344 C 528.246094 313.375 533.21875 293.15625 522.226562 279.464844 C 520.796875 277.917969 518.265625 279.738281 519.554688 281.339844 Z M 519.554688 281.339844 " fill-opacity="1" fill-rule="nonzero"/></g></g></g></svg>